Coordinates
version=1
nRows=17
nColumns=23
inDegrees=yes

Units are S.I. units (second, meters, Newtons, ...)
If the header above contains a line with 'inDegrees', this indicates whether rotational values are in degrees (yes) or radians (no).

endheader
time	pelvis_tilt	pelvis_list	pelvis_rotation	pelvis_tx	pelvis_ty	pelvis_tz	hip_flexion_r	hip_adduction_r	hip_rotation_r	knee_angle_r	knee_angle_r_beta	ankle_angle_r	subtalar_angle_r	mtp_angle_r	hip_flexion_l	hip_adduction_l	hip_rotation_l	knee_angle_l	knee_angle_l_beta	ankle_angle_l	subtalar_angle_l	mtp_angle_l
      7.50000000	    -14.49474138	      3.76921545	      2.65607549	      2.14136808	      1.02982957	      1.04563384	    -11.70203890	     -2.44101511	    -11.02432064	     14.52345228	      0.25348206	    -12.68444252	      0.04597637	      0.00000000	     47.02565817	      3.25481365	     -9.29093267	     48.48756983	      0.84626774	     13.10580738	      0.10315534	      0.00000000
      7.50666667	    -14.49073966	      3.70581132	      2.85740441	      2.14307594	      1.03157126	      1.04525102	    -12.22132542	     -2.51367200	    -12.52259266	     15.91519368	      0.27777253	    -12.97637228	     -1.01694482	      0.00000000	     45.90419256	      3.61569677	     -9.08158604	     43.00449458	      0.75057002	     12.93660293	      0.02241700	      0.00000000
      7.51333333	    -14.63395929	      3.50247932	      2.99837673	      2.14464582	      1.03248004	      1.04487727	    -12.35460758	     -2.52114371	    -13.87351371	     17.82824080	      0.31116150	    -12.87525871	     -2.41104471	      0.00000000	     44.88143720	      3.73119214	     -9.05849719	     37.66122327	      0.65731235	     12.97769580	      0.78932312	      0.00000000
      7.52000000	    -14.70203295	      3.25501282	      3.13887959	      2.14611951	      1.03287713	      1.04432710	    -12.41119579	     -2.54591375	    -15.11850837	     20.13369463	      0.35139926	    -12.49076053	     -3.90591321	      0.00000000	     43.71916100	      3.84224945	     -8.97831927	     32.44528636	      0.56627707	     12.97131025	      1.65603440	      0.00000000
      7.52666667	    -14.70396509	      2.97061765	      3.25379859	      2.14751425	      1.03277177	      1.04362776	    -12.37522362	     -2.57431954	    -16.04813714	     22.81261285	      0.39815521	    -11.94951761	     -5.54566306	      0.00000000	     42.45147939	      3.93018792	     -8.84288609	     27.46990183	      0.47944023	     12.94823824	      2.66944695	      0.00000000
      7.53333333	    -14.65620220	      2.60047004	      3.37185769	      2.14876644	      1.03205417	      1.04274183	    -12.23948439	     -2.53295979	    -16.64896350	     25.81583728	      0.45057136	    -11.34814132	     -7.40661538	      0.00000000	     41.20216808	      3.95083754	     -8.63258007	     22.96018666	      0.40073085	     12.95311777	      3.80891858	      0.00000000
      7.54000000	    -14.44895597	      2.23447801	      3.51183416	      2.14989298	      1.03113020	      1.04167053	    -12.13575554	     -2.42772389	    -16.74925615	     29.03434714	      0.50674495	    -10.89729674	     -9.43562190	      0.00000000	     39.74674972	      4.11215238	     -7.72778265	     18.72905713	      0.32688371	     12.58328635	      3.88219927	      0.00000000
      7.54666667	    -14.27067049	      1.78590237	      3.57350966	      2.15075318	      1.02958649	      1.04075100	    -11.76143188	     -2.20902921	    -16.35731993	     32.61782993	      0.56928853	    -10.56216901	    -11.55432030	      0.00000000	     38.63448124	      3.96935822	     -7.39129259	     15.57472407	      0.27183022	     12.48749180	      4.85102044	      0.00000000
      7.55333333	    -14.11741062	      1.32770352	      3.69201126	      2.15129076	      1.02758139	      1.03977614	    -11.15201452	     -1.91292098	    -15.68503680	     36.51254599	      0.63726415	    -10.38334854	    -13.58227361	      0.00000000	     37.77402188	      3.81479353	     -6.97264207	     13.28818535	      0.23192259	     12.33375908	      5.59851257	      0.00000000
      7.56000000	    -13.93707749	      0.87887528	      3.85519284	      2.15141890	      1.02536722	      1.03888961	    -10.37131024	     -1.44431520	    -14.59555073	     40.59822779	      0.70857275	    -10.62908167	    -15.94074549	      0.00000000	     36.95726517	      3.74075508	     -5.85326334	     11.53920067	      0.20139704	     11.68170368	      5.02189174	      0.00000000
      7.56666667	    -13.80719967	      0.51886941	      4.03484427	      2.15119673	      1.02268964	      1.03813047	     -9.32199298	     -1.04052309	    -13.52073254	     45.01248082	      0.78561599	    -10.87465266	    -17.65163766	      0.00000000	     36.53861262	      3.62178693	     -5.32254083	     10.93393504	      0.19083317	     11.08843363	      4.95298061	      0.00000000
      7.57333333	    -13.60638835	      0.33895760	      4.22623953	      2.15063449	      1.01984127	      1.03751167	     -8.18126737	     -0.77226573	    -12.47843962	     49.63038741	      0.86621367	    -11.13385926	    -18.83669422	      0.00000000	     36.21593222	      3.61138350	     -4.99388155	     11.09902783	      0.19371458	     10.21201547	      4.70588494	      0.00000000
      7.58000000	    -13.58876354	      0.11335659	      4.53084490	      2.14954174	      1.01636997	      1.03694324	     -6.68754317	     -0.36354550	    -11.50106828	     54.36800731	      0.94890074	    -11.53801563	    -19.76320872	      0.00000000	     36.34348845	      3.61785982	     -4.34746602	     12.11477466	      0.21144271	      9.06159781	      3.68950006	      0.00000000
      7.58666667	    -13.46515277	      0.05360985	      4.86628668	      2.14821617	      1.01265267	      1.03647704	     -5.21575753	     -0.12729022	    -10.72264955	     59.16722228	      1.03266284	    -11.80783354	    -20.05532101	      0.00000000	     36.53842555	      3.72097773	     -3.99061484	     13.86898578	      0.24205947	      7.77139729	      2.67184254	      0.00000000
      7.59333333	    -13.32673075	      0.04309957	      5.26223430	      2.14658936	      1.00847649	      1.03606131	     -3.68006314	      0.06170010	    -10.12364317	     63.96397907	      1.11638204	    -11.92474773	    -19.88223235	      0.00000000	     36.93905552	      3.83745853	     -3.75581191	     16.37615027	      0.28581774	      6.52746826	      1.55793089	      0.00000000
      7.60000000	    -13.14222575	      0.05214175	      5.71720544	      2.14472311	      1.00386903	      1.03567888	     -2.14601297	      0.19066659	     -9.74632775	     68.68549800	      1.19878809	    -11.83431946	    -19.30379708	      0.00000000	     37.46813106	      3.94357085	     -3.58972611	     19.49849821	      0.34031299	      5.53792542	      0.47084355	      0.00000000
      7.60666667	    -12.91895886	      0.07478246	      6.16257910	      2.14265963	      0.99886178	      1.03547046	     -0.59071605	      0.29383882	     -9.46076279	     73.30887985	      1.27948132	    -11.56695156	    -18.47928189	      0.00000000	     38.10055608	      3.94997469	     -3.66713850	     23.13444433	      0.40377222	      5.11640254	     -0.21386856	      0.00000000
